<svg width="97" height="28" viewBox="0 0 97 28" fill="none" xmlns="http://www.w3.org/2000/svg">
<rect width="97" height="28" fill="#F5F5F5"/>
<path d="M3.48 -1.90735e-06H13.08V4.8H5.4L5.28 5.04L11.68 16.72C12.9867 19.0667 13.64 20.8533 13.64 22.08C13.64 24.7733 12.7467 26.7467 10.96 28H0.36V23.36H8.64L8.76 23.12L1.56 10.2C0.52 8.33333 1.49012e-08 6.81333 1.49012e-08 5.64C1.49012e-08 2.86667 1.16 0.986665 3.48 -1.90735e-06ZM28.1925 28H19.4725C16.8058 25.52 15.4725 22.1333 15.4725 17.84C15.4725 15.68 15.7658 13.8 16.3525 12.2C16.9658 10.6 17.9258 9.05333 19.2325 7.56H28.5925C29.9792 9.16 30.9258 10.72 31.4325 12.24C31.9392 13.7333 32.1925 15.6 32.1925 17.84C32.1925 22.1333 30.8592 25.52 28.1925 28ZM22.3125 23.8H25.3525C26.3125 21.9333 26.7925 19.8133 26.7925 17.44C26.7925 15.0667 26.2992 13.1733 25.3125 11.76H22.3125C21.3525 13.12 20.8725 15.0533 20.8725 17.56C20.8725 20.04 21.3525 22.12 22.3125 23.8ZM44.3759 7.56H48.1759C49.3493 9.05333 50.1493 10.5467 50.5759 12.04C51.0026 13.5333 51.2159 15.4 51.2159 17.64V28H45.8959V17.24C45.8959 14.7067 45.5493 12.88 44.8559 11.76H40.3759V28H35.0559V-1.90735e-06H40.3759V9C40.9626 8.46667 41.5093 8.09333 42.0159 7.88C42.5493 7.66667 43.3359 7.56 44.3759 7.56ZM64.1491 18.76H59.8691C59.3091 19.4533 59.0291 20.32 59.0291 21.36C59.0291 22.4 59.3224 23.2133 59.9091 23.8H64.1491V18.76ZM55.5491 7.56H65.4691C67.0691 8.52 68.1224 9.62667 68.6291 10.88C69.1357 12.1067 69.3891 13.7867 69.3891 15.92V21.92C69.3891 24.1333 69.4424 26.16 69.5491 28H64.9891L64.2691 26.56C63.2291 27.52 61.7624 28 59.8691 28H57.3491C55.0824 26.5067 53.9491 24.36 53.9491 21.56C53.9491 18.7333 55.1091 16.5067 57.4291 14.88H61.1891C62.2291 14.88 63.2024 15.2 64.1091 15.84V13.84C64.1091 12.8 63.6557 12.1067 62.7491 11.76H55.5491V7.56ZM81.7094 7.56H84.5494L85.5494 8.96C86.1094 8.45333 86.6427 8.09333 87.1494 7.88C87.6827 7.66667 88.4694 7.56 89.5094 7.56H93.9494C95.1227 9.05333 95.9227 10.5467 96.3494 12.04C96.776 13.5333 96.9894 15.4 96.9894 17.64V28H91.6694V17.24C91.6694 14.7867 91.296 12.96 90.5494 11.76H86.7094C87.296 12.9067 87.5894 14.4667 87.5894 16.44V28H82.2694V17.24C82.2694 14.7067 81.9227 12.88 81.2294 11.76H78.1494V28H72.8294V7.56H76.9894L77.7094 9C78.296 8.46667 78.8427 8.09333 79.3494 7.88C79.8827 7.66667 80.6694 7.56 81.7094 7.56Z" fill="#FCFCFC"/>
</svg>
